<?xml version="1.0" encoding="utf-8"?>
<!-- Generator: Adobe Illustrator 16.0.4, SVG Export Plug-In . SVG Version: 6.00 Build 0)  -->
<!DOCTYPE svg PUBLIC "-//W3C//DTD SVG 1.0//EN" "http://www.w3.org/TR/2001/REC-SVG-20010904/DTD/svg10.dtd">
<svg version="1.0" id="Calque_1" xmlns="http://www.w3.org/2000/svg" xmlns:xlink="http://www.w3.org/1999/xlink" x="0px" y="0px"
	 width="243.29px" height="220.254px" viewBox="1 0 243.29 220.254" enable-background="new 1 0 243.29 220.254"
	 xml:space="preserve">
<linearGradient id="SVGID_1_" gradientUnits="userSpaceOnUse" x1="1001.5273" y1="1738.5957" x2="966.5249" y2="1774.0977" gradientTransform="matrix(1 0 0 1 -836 -1672.2383)">
	<stop  offset="0" style="stop-color:#1B5583"/>
	<stop  offset="1" style="stop-color:#80C8FF"/>
</linearGradient>
<path fill="url(#SVGID_1_)" d="M184.164,116.581l-16.748-50.16c-0.249-0.707-0.832-1.33-1.58-1.58l-50.535-16.623
	c-0.914-0.292-1.91-0.042-2.576,0.623c-0.666,0.666-0.916,1.621-0.582,2.535l16.749,50.119c0.124,0.373,0.331,0.707,0.623,1
	c0.249,0.246,0.582,0.455,0.956,0.58l50.535,16.666c0.914,0.288,1.912,0.041,2.576-0.623
	C184.247,118.452,184.496,117.454,184.164,116.581z"/>
<linearGradient id="SVGID_2_" gradientUnits="userSpaceOnUse" x1="896.7695" y1="1765.7695" x2="957.2702" y2="1777.2699" gradientTransform="matrix(1 0 0 1 -836 -1672.2383)">
	<stop  offset="0" style="stop-color:#009339"/>
	<stop  offset="1" style="stop-color:#74E69F"/>
</linearGradient>
<path fill="url(#SVGID_2_)" d="M122.864,103.2l-17.08-49.912c-0.249-0.791-0.955-1.414-1.787-1.621
	c-0.873-0.207-1.745,0.041-2.368,0.664L61.191,93.1c-0.665,0.666-0.871,1.662-0.582,2.535l17.08,49.912
	c0.126,0.373,0.333,0.707,0.582,0.957c0.333,0.332,0.75,0.582,1.206,0.664c0.872,0.209,1.745-0.041,2.368-0.664l40.437-40.73
	C122.948,105.112,123.197,104.114,122.864,103.2z"/>
<linearGradient id="SVGID_3_" gradientUnits="userSpaceOnUse" x1="977.3711" y1="1841.4893" x2="962.8702" y2="1782.9857" gradientTransform="matrix(1 0 0 1 -836 -1672.2383)">
	<stop  offset="0" style="stop-color:#CC0605"/>
	<stop  offset="1" style="stop-color:#FF8787"/>
</linearGradient>
<path fill="url(#SVGID_3_)" d="M182.003,127.801c-0.206-0.83-0.831-1.537-1.662-1.787l-50.286-16.955
	c-0.916-0.332-1.912-0.084-2.578,0.582l-40.436,40.77c-0.624,0.623-0.873,1.493-0.664,2.325c0.083,0.457,0.331,0.873,0.664,1.207
	c0.25,0.248,0.582,0.455,0.955,0.582l49.664,16.953c0.913,0.293,1.911,0.084,2.577-0.621l41.06-40.729
	C181.92,129.506,182.17,128.633,182.003,127.801z"/>
<g>
	<g>
		<path fill="#838383" d="M69.832,199.782c-31.129-19.074-49.664-52.529-49.664-89.518c0-36.945,18.535-70.401,49.664-89.476
			c3.697-2.286,4.902-7.189,2.658-10.972c-1.412-2.368-3.99-3.864-6.691-3.864c-1.412,0-2.826,0.415-4.031,1.163
			C25.902,29.1,4.5,67.667,4.5,110.264c0,42.64,21.402,81.205,57.268,103.191c1.205,0.748,2.619,1.121,4.031,1.121
			c2.744,0,5.279-1.412,6.691-3.867c1.081-1.826,1.414-3.945,0.872-6.023C72.865,202.607,71.617,200.863,69.832,199.782z"/>
		<path fill="#838383" d="M183.285,7.115c-1.245-0.748-2.617-1.163-4.031-1.163c-2.741,0-5.318,1.496-6.73,3.864
			c-2.203,3.782-0.999,8.686,2.658,10.972c31.129,19.075,49.703,52.531,49.703,89.476c0,36.988-18.574,70.443-49.703,89.518
			c-1.786,1.081-3.034,2.825-3.531,4.903c-0.499,2.078-0.209,4.192,0.873,6.021c1.453,2.455,3.946,3.867,6.73,3.867
			c1.414,0,2.786-0.373,4.031-1.121c35.825-21.986,57.228-60.554,57.228-103.191C240.513,67.667,219.11,29.1,183.285,7.115z"/>
	</g>
	<g>
		<path fill="#C3C3C3" d="M174.309,193.59c-1.662-2.453-5.318-3.158-7.812-1.455c-12.967,8.895-28.176,13.59-43.97,13.59
			c-15.791,0-31.003-4.695-44.01-13.59c-2.494-1.703-6.11-0.998-7.812,1.455c-0.872,1.246-1.165,2.742-0.915,4.24
			c0.29,1.494,1.121,2.783,2.367,3.656c14.879,10.182,32.292,15.541,50.37,15.541c18.038,0,35.45-5.359,50.327-15.541
			c1.248-0.873,2.121-2.162,2.371-3.656C175.514,196.333,175.182,194.836,174.309,193.59z"/>
		<path fill="#C3C3C3" d="M75.357,28.727c1.121,0,2.203-0.332,3.159-0.955c12.967-8.645,28.219-13.217,44.01-13.217
			c15.794,0,31.003,4.572,43.97,13.217c2.494,1.662,6.11,0.955,7.812-1.415c0.873-1.204,1.205-2.701,0.916-4.155
			c-0.25-1.455-1.123-2.742-2.371-3.574C157.977,8.736,140.564,3.5,122.526,3.5c-18.078,0-35.491,5.236-50.37,15.127
			c-1.246,0.832-2.118,2.119-2.367,3.574c-0.25,1.454,0.043,2.951,0.915,4.155C71.743,27.853,73.488,28.727,75.357,28.727z"/>
	</g>
</g>
</svg>
